<?xml version="1.0" encoding="UTF-8"?>
<svg version="1.1" xmlns="http://www.w3.org/2000/svg" width="512" height="512">
<path d="M0 0 C4.45851424 3.33012483 8.52016643 7.04027702 12.53125 10.890625 C13.418125 11.73625 14.305 12.581875 15.21875 13.453125 C15.981875 14.2575 16.745 15.061875 17.53125 15.890625 C18.04945313 16.42558594 18.56765625 16.96054688 19.1015625 17.51171875 C33.0062978 32.50763283 41.21663897 52.63463584 43.09375 72.890625 C43.66884763 76.2806742 44.186823 77.56471559 46.7109375 79.953125 C48.60006959 81.28033394 50.5175223 82.56787143 52.45703125 83.8203125 C63.52171113 91.27174876 73.07206992 103.24381942 77.34375 115.953125 C78.53600822 118.90927208 79.24401823 119.73183378 82.08203125 121.30078125 C84.16634486 122.12444267 86.26498919 122.91256439 88.375 123.66796875 C101.90002741 128.90724298 112.62511924 141.10220397 118.71777344 153.98583984 C124.87794923 168.41011703 125.3895335 184.00030156 120.53125 198.890625 C120.26441406 199.74140625 119.99757813 200.5921875 119.72265625 201.46875 C114.66064247 215.77737561 103.68976815 226.80526907 90.53125 233.890625 C82.13548205 237.60929847 74.67300029 240.01608676 65.46875 240.203125 C64.26089844 240.24050781 63.05304688 240.27789062 61.80859375 240.31640625 C58.53125 239.890625 58.53125 239.890625 56.09765625 238.05859375 C54.53125 235.890625 54.53125 235.890625 54.53125 232.890625 C51.23125 232.890625 47.93125 232.890625 44.53125 232.890625 C44.2425 233.86 43.95375 234.829375 43.65625 235.828125 C42.53125 238.890625 42.53125 238.890625 40.53125 239.890625 C35.31019737 240.39588816 35.31019737 240.39588816 32.53125 239.890625 C30.03125 237.515625 30.03125 237.515625 28.53125 234.890625 C28.53125 234.230625 28.53125 233.570625 28.53125 232.890625 C23.58125 232.890625 18.63125 232.890625 13.53125 232.890625 C13.20125 234.540625 12.87125 236.190625 12.53125 237.890625 C10.12778621 240.29408879 9.39224805 240.21146247 6.09375 240.265625 C1.85721613 240.17708008 1.85721613 240.17708008 -0.53125 238.078125 C-1.46875 235.890625 -1.46875 235.890625 -1.46875 232.890625 C-6.41875 232.890625 -11.36875 232.890625 -16.46875 232.890625 C-16.79875 234.210625 -17.12875 235.530625 -17.46875 236.890625 C-18.53125 238.640625 -18.53125 238.640625 -20.46875 239.890625 C-25.55219031 240.53614123 -25.55219031 240.53614123 -28.46875 239.890625 C-30.96875 237.515625 -30.96875 237.515625 -32.46875 234.890625 C-32.46875 234.230625 -32.46875 233.570625 -32.46875 232.890625 C-37.41875 232.890625 -42.36875 232.890625 -47.46875 232.890625 C-47.79875 234.540625 -48.12875 236.190625 -48.46875 237.890625 C-50.87221379 240.29408879 -51.60775195 240.21146247 -54.90625 240.265625 C-59.14278387 240.17708008 -59.14278387 240.17708008 -61.53125 238.078125 C-62.46875 235.890625 -62.46875 235.890625 -62.46875 232.890625 C-66.09875 232.890625 -69.72875 232.890625 -73.46875 232.890625 C-74.12875 234.540625 -74.78875 236.190625 -75.46875 237.890625 C-77.88657581 240.30845081 -79.25866411 240.19455113 -82.57055664 240.27148438 C-101.85231151 240.2173158 -119.10344873 233.46829496 -132.75 219.80078125 C-147.30608752 204.2199117 -154.2853791 186.03738777 -153.75 164.64453125 C-152.94009559 153.83455716 -150.32862937 144.60633032 -145.48046875 135.01171875 C-144.20136721 131.06576458 -144.80965562 129.64037009 -146.46875 125.890625 C-146.93152344 124.73949219 -147.39429688 123.58835937 -147.87109375 122.40234375 C-148.12036621 121.78770264 -148.36963867 121.17306152 -148.62646484 120.53979492 C-159.15310875 94.05839738 -157.46630089 66.08948585 -146.45117188 40.05322266 C-135.83281924 16.67912534 -115.96550748 -0.52728791 -92.46875 -10.109375 C-61.43087161 -21.22672422 -27.55995273 -18.42864309 0 0 Z " fill="#D7BE9D" transform="translate(307.46875,165.109375)"/>
<path d="M0 0 C4.45851424 3.33012483 8.52016643 7.04027702 12.53125 10.890625 C13.418125 11.73625 14.305 12.581875 15.21875 13.453125 C15.981875 14.2575 16.745 15.061875 17.53125 15.890625 C18.04945313 16.42558594 18.56765625 16.96054688 19.1015625 17.51171875 C33.0062978 32.50763283 41.21663897 52.63463584 43.09375 72.890625 C43.66884763 76.2806742 44.186823 77.56471559 46.7109375 79.953125 C48.60006959 81.28033394 50.5175223 82.56787143 52.45703125 83.8203125 C63.52171113 91.27174876 73.07206992 103.24381942 77.34375 115.953125 C78.53600822 118.90927208 79.24401823 119.73183378 82.08203125 121.30078125 C84.16634486 122.12444267 86.26498919 122.91256439 88.375 123.66796875 C101.90002741 128.90724298 112.62511924 141.10220397 118.71777344 153.98583984 C124.87794923 168.41011703 125.3895335 184.00030156 120.53125 198.890625 C120.26441406 199.74140625 119.99757813 200.5921875 119.72265625 201.46875 C114.66064247 215.77737561 103.68976815 226.80526907 90.53125 233.890625 C82.13548205 237.60929847 74.67300029 240.01608676 65.46875 240.203125 C64.26089844 240.24050781 63.05304688 240.27789062 61.80859375 240.31640625 C58.53125 239.890625 58.53125 239.890625 56.09375 238.125 C54.34395687 235.62279583 54.09817291 234.78449869 54.59375 231.828125 C54.68785156 231.15652344 54.78195312 230.48492187 54.87890625 229.79296875 C55.73395073 227.29951569 56.33913815 226.40380342 58.53125 224.890625 C61.15711976 224.36603393 63.69451429 223.97072053 66.34375 223.640625 C78.39040487 221.83407776 89.27445619 216.91406153 97.5078125 207.671875 C105.69044978 196.34803573 108.35913548 183.64265872 106.53125 169.890625 C103.4639931 157.18729552 96.30223951 148.04017263 85.53125 140.890625 C80.7483475 138.03557188 75.88147256 136.24148134 70.51171875 134.796875 C67.09165819 133.23187687 65.87468185 130.71160261 64.4609375 127.33203125 C63.93886719 125.90697266 63.93886719 125.90697266 63.40625 124.453125 C56.89963638 108.42176975 44.95216884 95.32563479 28.99609375 88.34375 C25.53410865 87.06292853 22.07317218 85.9284124 18.53125 84.890625 C17.70238281 84.64441406 16.87351562 84.39820313 16.01953125 84.14453125 C-1.49249994 79.83342001 -19.51098346 83.59623884 -34.8828125 92.55078125 C-42.93226251 97.58114568 -50.01943756 104.36460166 -55.1875 112.33203125 C-56.7822506 114.27198701 -58.11632789 115.02880307 -60.46875 115.890625 C-63.97994775 115.61195851 -67.23860883 115.18498021 -70.65625 114.3671875 C-87.590429 111.49778495 -102.38636822 115.1428203 -116.46875 124.890625 C-127.5089245 133.79825298 -134.56580457 146.89419461 -136.46875 160.890625 C-137.74414259 177.40800447 -133.99634914 192.42791682 -123.4375 205.3828125 C-112.6379095 217.00411097 -99.41182754 221.87840642 -84.09570312 223.61914062 C-77.93715205 224.44582461 -77.93715205 224.44582461 -75.453125 226.8046875 C-74.1162196 229.6376537 -73.53303921 231.74045372 -73.46875 234.890625 C-75.0078125 237.546875 -75.0078125 237.546875 -77.46875 239.890625 C-93.36229547 242.86258879 -110.38991092 236.72964059 -123.46875 227.890625 C-139.54152276 215.9354767 -149.57663919 199.38048308 -153 179.67578125 C-154.96912996 163.77505681 -152.67465353 149.24916137 -145.48046875 135.01171875 C-144.20136721 131.06576458 -144.80965562 129.64037009 -146.46875 125.890625 C-146.93152344 124.73949219 -147.39429688 123.58835937 -147.87109375 122.40234375 C-148.12036621 121.78770264 -148.36963867 121.17306152 -148.62646484 120.53979492 C-159.15310875 94.05839738 -157.46630089 66.08948585 -146.45117188 40.05322266 C-135.83281924 16.67912534 -115.96550748 -0.52728791 -92.46875 -10.109375 C-61.43087161 -21.22672422 -27.55995273 -18.42864309 0 0 Z " fill="#241815" transform="translate(307.46875,165.109375)"/>
<path d="M0 0 C15.88951886 13.17259343 27.25764408 32.19012388 29.4519043 52.84643555 C28.69651367 52.62987305 27.94112305 52.41331055 27.1628418 52.19018555 C6.89815667 47.06469142 -13.68809373 48.8679394 -32.5480957 57.84643555 C-33.43883789 58.2537793 -34.32958008 58.66112305 -35.24731445 59.08081055 C-44.2735793 63.5610004 -53.66136779 70.52471903 -59.65356445 78.72924805 C-61.5480957 80.84643555 -61.5480957 80.84643555 -63.8527832 81.1159668 C-65.12508789 80.88973633 -65.12508789 80.88973633 -66.4230957 80.65893555 C-86.5914288 77.9342071 -104.78071058 82.27709462 -121.48168945 93.88549805 C-122.9930995 95.0607705 -124.4859303 96.26093244 -125.9465332 97.4987793 C-127.5480957 98.84643555 -127.5480957 98.84643555 -129.5480957 99.84643555 C-130.34569327 97.53583801 -131.13620797 95.22318121 -131.9230957 92.90893555 C-132.14481445 92.26891602 -132.3665332 91.62889648 -132.5949707 90.96948242 C-140.08187722 68.83906757 -137.44546539 46.50104734 -127.5246582 25.60424805 C-117.40053928 5.59003505 -99.23215517 -7.71016589 -78.5480957 -15.15356445 C-77.60579102 -15.49387695 -76.66348633 -15.83418945 -75.69262695 -16.18481445 C-49.43818075 -23.83793237 -21.03703267 -16.70015766 0 0 Z " fill="#F7B52C" transform="translate(304.548095703125,183.153564453125)"/>
<path d="M0 0 C3.1850357 1.76015131 3.83296972 2.49890916 5 6 C5.12110727 8.81812956 5.18815045 11.61074696 5.203125 14.4296875 C5.20882507 15.257034 5.21452515 16.08438049 5.22039795 16.9367981 C5.22984023 18.68685632 5.23637887 20.43693227 5.24023438 22.18701172 C5.24993847 24.85806431 5.28096785 27.52834675 5.3125 30.19921875 C5.31903058 31.90103711 5.32428084 33.60286096 5.328125 35.3046875 C5.3404718 36.10067352 5.3528186 36.89665955 5.36553955 37.71676636 C5.34721603 42.30041386 4.96385426 45.27037816 2 49 C-1.05693322 50.52846661 -3.62984547 50.23242445 -7 50 C-10.1850357 48.23984869 -10.83296972 47.50109084 -12 44 C-12.27796346 38.46395315 -12.31343914 32.92811316 -12.35009766 27.38574219 C-12.36666808 25.54869935 -12.39397259 23.71172128 -12.43212891 21.875 C-12.4869436 19.22101542 -12.50877536 16.56853713 -12.5234375 13.9140625 C-12.54610687 13.0962027 -12.56877625 12.2783429 -12.59213257 11.43569946 C-12.5763197 7.15935266 -12.37116261 5.48617516 -9.68994141 1.97412109 C-6.18884832 -0.5952961 -4.25427754 -0.61880401 0 0 Z " fill="#231714" transform="translate(255,78)"/>
<path d="M0 0 C3.23872519 2.67194829 3.88915865 4.37928845 4.625 8.5 C3.81762537 13.02129794 1.53831488 14.44404989 -2 17 C-5.92785119 19.54701134 -9.97192398 21.88326052 -14.03100586 24.21313477 C-15.93797829 25.3127758 -17.830992 26.4341974 -19.72460938 27.55664062 C-20.949727 28.26439672 -22.17561383 28.97082337 -23.40234375 29.67578125 C-24.50054443 30.31427002 -25.59874512 30.95275879 -26.73022461 31.6105957 C-30.45986952 33.19540935 -32.98606847 33.41789943 -37 33 C-40.38121991 30.55401113 -41.76936783 29.10703441 -42.625 25 C-41.60503656 20.10417547 -38.15531337 17.76027887 -34.09326172 15.0871582 C-33.04928223 14.49765381 -32.00530273 13.90814941 -30.9296875 13.30078125 C-29.78628906 12.64916016 -28.64289063 11.99753906 -27.46484375 11.32617188 C-26.26839082 10.65465981 -25.07177455 9.9834387 -23.875 9.3125 C-22.67013652 8.63032749 -21.46570523 7.94739105 -20.26171875 7.26367188 C-18.0594526 6.01323262 -15.85508064 4.76648968 -13.64794922 3.5246582 C-5.63584996 -1.08861488 -5.63584996 -1.08861488 0 0 Z " fill="#221714" transform="translate(396,159)"/>
<path d="M0 0 C5.7237547 1.18405235 10.63198099 4.70700729 15.57275391 7.70678711 C16.72875759 8.38864929 17.88565394 9.06900044 19.04345703 9.74780273 C35.10938456 19.27213802 35.10938456 19.27213802 36.63525391 24.01928711 C36.49818934 27.85709493 35.87703076 29.53890145 33.51025391 32.51928711 C30.42135996 34.06373408 27.92967254 33.76329513 24.51025391 33.51928711 C21.24047852 32.12988281 21.24047852 32.12988281 17.91259766 30.19506836 C17.31524307 29.85179001 16.71788849 29.50851166 16.10243225 29.15483093 C14.84713 28.42963704 13.59597279 27.69722488 12.34887695 26.95800781 C10.45788695 25.8377899 8.55510593 24.74036944 6.64892578 23.64624023 C0.90124533 20.3084818 -4.6240675 17.07931111 -9.48974609 12.51928711 C-10.22939133 8.3772738 -9.8981395 6.31905752 -7.98974609 2.58178711 C-5.20861518 0.28735411 -3.5700484 -0.09770403 0 0 Z " fill="#221714" transform="translate(112.48974609375,158.480712890625)"/>
<path d="M0 0 C4.93205521 2.10069018 4.93205521 2.10069018 6.375 5.4375 C6.25204946 12.5402583 2.70426776 17.81034289 -0.8125 23.8125 C-1.37775391 24.8025 -1.94300781 25.7925 -2.52539062 26.8125 C-11.38490231 42.19740231 -11.38490231 42.19740231 -14.625 45.4375 C-21.59069921 46.13406992 -21.59069921 46.13406992 -25.6875 43.375 C-27.625 40.4375 -27.625 40.4375 -27.53125 37.29296875 C-26.42328574 32.57934494 -24.48970482 28.96696943 -22.0625 24.8125 C-21.61430908 24.0299585 -21.16611816 23.24741699 -20.7043457 22.44116211 C-19.35623757 20.09961044 -17.99107296 17.76860161 -16.625 15.4375 C-15.86955992 14.1186223 -15.11433431 12.79962171 -14.359375 11.48046875 C-13.67899145 10.31919244 -12.99682094 9.15896044 -12.3125 8 C-11.71824219 6.99066406 -11.12398438 5.98132813 -10.51171875 4.94140625 C-7.40980371 0.82478608 -5.16257507 -0.80108923 0 0 Z " fill="#221714" transform="translate(334.625,99.5625)"/>
<path d="M0 0 C4.57808904 5.05715807 7.71456543 11.11934998 11.08276367 17.01049805 C12.18548574 18.9339865 13.30232024 20.84880028 14.41992188 22.76367188 C15.12848425 23.99689059 15.83619565 25.23059871 16.54296875 26.46484375 C17.18258545 27.574646 17.82220215 28.68444824 18.48120117 29.82788086 C20.00399505 33.00834394 20.74412186 35.49289146 21 39 C18.86956522 43.56521739 18.86956522 43.56521739 16 45 C10.21448468 45.55988858 10.21448468 45.55988858 8 45 C4.97432264 41.57516597 2.66620043 37.92129441 0.3984375 33.96484375 C-0.25640625 32.82595703 -0.91125 31.68707031 -1.5859375 30.51367188 C-1.92077148 29.92642334 -2.25560547 29.3391748 -2.60058594 28.73413086 C-3.6253678 26.93685495 -4.65586456 25.14295853 -5.6875 23.34960938 C-9.26256629 17.11443941 -9.26256629 17.11443941 -11 14 C-11.4026709 13.29174072 -11.8053418 12.58348145 -12.22021484 11.85375977 C-13.52855635 8.74347891 -12.75601492 6.19852464 -12 3 C-8.79905159 -1.36492965 -4.94820661 -1.41377332 0 0 Z " fill="#221714" transform="translate(175,100)"/>
<path d="M0 0 C3.26473709 2.14785335 3.9058033 3.69524596 5.0625 7.4375 C5 11 5 11 3.24609375 13.27734375 C-1.19622261 17.40956717 -6.75684679 20.15304561 -12 23.125 C-14.14587359 24.35670071 -16.29170831 25.58846912 -18.4375 26.8203125 C-19.85869141 27.62879639 -19.85869141 27.62879639 -21.30859375 28.45361328 C-23.12708726 29.49845525 -24.92970835 30.57134409 -26.71655273 31.66943359 C-30.4450936 33.84205711 -32.73074293 33.54212788 -37 33 C-40.19015954 30.36811838 -40.87213356 28.58605451 -41.75 24.5625 C-40.63822376 19.28156285 -37.35970338 17.89170757 -33 15 C-29.26685397 12.63705977 -25.49238679 10.35880706 -21.67260742 8.13867188 C-19.92847414 7.11972698 -18.19804256 6.07971533 -16.46679688 5.0390625 C-15.35240234 4.389375 -14.23800781 3.7396875 -13.08984375 3.0703125 C-12.08816162 2.48008301 -11.08647949 1.88985352 -10.05444336 1.28173828 C-6.45765483 -0.2275847 -3.86592918 -0.34254703 0 0 Z " fill="#221714" transform="translate(144,304)"/>
<path d="M0 0 C1.34658188 -0.00855011 1.34658188 -0.00855011 2.72036743 -0.01727295 C4.62183451 -0.02672795 6.523318 -0.03325891 8.42480469 -0.03710938 C11.33297338 -0.04681297 14.24043482 -0.07783056 17.1484375 -0.109375 C18.99478746 -0.11590522 20.84114249 -0.12115562 22.6875 -0.125 C23.99235855 -0.1435202 23.99235855 -0.1435202 25.32357788 -0.16241455 C31.31514195 -0.14032706 31.31514195 -0.14032706 34.49853516 1.51269531 C36.89063593 4.24855685 36.91523961 6.6463976 36.9765625 10.203125 C35.84005306 12.57946293 34.83215221 14.34753529 32.9765625 16.203125 C29.92083186 16.32919753 26.88897025 16.39183072 23.83203125 16.40625 C22.91069901 16.41195007 21.98936676 16.41765015 21.04011536 16.42352295 C19.0855932 16.4329894 17.13105497 16.43951343 15.17651367 16.44335938 C12.18705275 16.45305047 9.19828332 16.48405224 6.20898438 16.515625 C4.31250409 16.52215619 2.41601888 16.52740621 0.51953125 16.53125 C-0.37538528 16.5435968 -1.27030182 16.5559436 -2.19233704 16.56866455 C-8.35787499 16.54656678 -8.35787499 16.54656678 -11.5612793 14.89355469 C-13.93252003 12.15211691 -13.96225674 9.75160921 -14.0234375 6.203125 C-10.88042307 -0.68157329 -6.91170945 0.03361037 0 0 Z " fill="#221714" transform="translate(385.0234375,239.796875)"/>
<path d="M0 0 C0.89489136 -0.00524185 1.78978271 -0.0104837 2.71179199 -0.0158844 C4.60130782 -0.02229963 6.4908636 -0.02097406 8.38037109 -0.01245117 C11.27123035 -0.00393576 14.1601169 -0.03271732 17.05078125 -0.06445312 C18.88802024 -0.06606512 20.72526273 -0.06548763 22.5625 -0.0625 C23.42613159 -0.07373398 24.28976318 -0.08496796 25.17956543 -0.09654236 C31.16299699 -0.02704305 31.16299699 -0.02704305 34.30273438 2.31225586 C36.04988687 4.81902734 36.63223702 6.37882769 36.78125 9.43359375 C35.71725927 13.24622722 35.1560849 14.18370382 31.78125 16.43359375 C29.85292053 16.70774841 29.85292053 16.70774841 27.64868164 16.73999023 C26.82094742 16.75597763 25.9932132 16.77196503 25.14039612 16.78843689 C23.80439613 16.79648094 23.80439613 16.79648094 22.44140625 16.8046875 C21.06365273 16.81823021 21.06365273 16.81823021 19.6580658 16.83204651 C17.71551781 16.84655322 15.77292091 16.85543679 13.83032227 16.85913086 C10.85805085 16.87103647 7.88784935 16.92022455 4.91601562 16.97070312 C3.02865597 16.98016631 1.14128356 16.98740185 -0.74609375 16.9921875 C-1.63473618 17.01171982 -2.5233786 17.03125214 -3.43894958 17.05137634 C-9.60532124 17.00627086 -9.60532124 17.00627086 -12.79125977 14.03198242 C-14.2566836 11.36454512 -14.68242145 10.26449925 -14.21875 7.30859375 C-14.13625 6.64601562 -14.05375 5.9834375 -13.96875 5.30078125 C-11.53368023 -0.76152788 -5.52995477 -0.01879731 0 0 Z " fill="#221714" transform="translate(95.21875,239.56640625)"/>
<path d="M0 0 C3.36627241 0.57298254 4.72753464 0.8807818 6.9375 3.5 C8.33108359 7.65377819 8.40362435 10.52721875 6.5 14.5 C3.41464939 16.90807853 1.67422124 17.18562576 -2.15625 16.9140625 C-4.0625 16.5 -4.0625 16.5 -6.5625 14.9375 C-8.67256839 11.50863886 -8.68741523 9.45779649 -8.0625 5.5 C-5.58320473 2.0727389 -4.20767131 0.68696675 0 0 Z " fill="#221714" transform="translate(385.0625,417.5)"/>
<path d="M0 0 C3.36627241 0.57298254 4.72753464 0.8807818 6.9375 3.5 C8.33108359 7.65377819 8.40362435 10.52721875 6.5 14.5 C3.41464939 16.90807853 1.67422124 17.18562576 -2.15625 16.9140625 C-4.0625 16.5 -4.0625 16.5 -6.5625 14.9375 C-8.67256839 11.50863886 -8.68741523 9.45779649 -8.0625 5.5 C-5.58320473 2.0727389 -4.20767131 0.68696675 0 0 Z " fill="#221714" transform="translate(328.0625,417.5)"/>
<path d="M0 0 C2.875 1.5 2.875 1.5 5 4 C5.94237143 7.99893269 5.61136591 10.98105682 3.5 14.5 C-0.25648836 16.75389302 -2.64579381 16.48380069 -7 16 C-8.9375 14.9375 -8.9375 14.9375 -10 13 C-11.02737671 9.03726124 -11.40572469 6.88873027 -9.6875 3.125 C-6.84166592 -0.45864292 -4.43603275 -0.43490517 0 0 Z " fill="#221714" transform="translate(302,418)"/>
<path d="M0 0 C3.32920557 0.56667329 4.71584456 0.94921042 6.9375 3.5 C8.05022738 7.50581858 8.37401903 9.58727839 6.5625 13.375 C4.9375 15.5 4.9375 15.5 3.9375 16.5 C-3.13496377 17.07971014 -3.13496377 17.07971014 -6.5625 14.9375 C-8.67256839 11.50863886 -8.68741523 9.45779649 -8.0625 5.5 C-5.58320473 2.0727389 -4.20767131 0.68696675 0 0 Z " fill="#221714" transform="translate(271.0625,417.5)"/>
<path d="M0 0 C2.875 1.5 2.875 1.5 5 4 C5.94237143 7.99893269 5.61136591 10.98105682 3.5 14.5 C-0.25648836 16.75389302 -2.64579381 16.48380069 -7 16 C-9.71240136 14.42505728 -9.94143553 13.18824293 -10.875 10.1875 C-11.02817911 6.28143268 -10.05994354 4.28065082 -8 1 C-5.14675563 -0.42662219 -3.16545451 -0.31033868 0 0 Z " fill="#221714" transform="translate(359,418)"/>
<path d="M0 0 C1.9375 1 1.9375 1 3 3 C3.78297038 5.71161065 4.17045278 8.17616567 4 11 C2.5625 13.5 2.5625 13.5 0 15 C-2.81115171 15.60362153 -5.19481479 15.65396956 -8 15 C-10.5625 12.9375 -10.5625 12.9375 -12 10 C-11.94021398 6.53241058 -11.60965977 4.11173251 -9.9375 1.0625 C-6.74152962 -0.69012892 -3.55023377 -0.51882331 0 0 Z " fill="#251A16" transform="translate(287,390)"/>
<path d="M0 0 C2.4375 1.5 2.4375 1.5 4 4 C4.5149217 6.90813732 4.33536988 8.98167108 4 12 C2.41081088 14.191985 1.51233306 14.8969765 -1.15625 15.43359375 C-7.41388944 15.44402315 -7.41388944 15.44402315 -10.0625 13.4375 C-11.36454848 10.05217395 -11.4495791 7.59663278 -11 4 C-8.11188513 -0.5054592 -5.11821063 -0.73117295 0 0 Z " fill="#251A17" transform="translate(256,390)"/>
<path d="M0 0 C1.9375 1.0625 1.9375 1.0625 3 3 C3.82343428 6.48376041 4.35892433 8.95083658 3.1875 12.375 C2 14 2 14 0 15 C-7.14136126 15.69109948 -7.14136126 15.69109948 -10.5625 12.9375 C-12.43625505 9.10852228 -12.12962701 7.06665724 -11 3 C-8.7141878 -1.16824577 -4.21805846 -0.6252237 0 0 Z " fill="#251A17" transform="translate(348,390)"/>
<path d="M0 0 C2.4375 1.5 2.4375 1.5 4 4 C4.5149217 6.90813732 4.33536988 8.98167108 4 12 C2.41081088 14.191985 1.51233306 14.8969765 -1.15625 15.43359375 C-7.41388944 15.44402315 -7.41388944 15.44402315 -10.0625 13.4375 C-11.36454848 10.05217395 -11.4495791 7.59663278 -11 4 C-8.11188513 -0.5054592 -5.11821063 -0.73117295 0 0 Z " fill="#251A16" transform="translate(317,390)"/>
<path d="M0 0 C2.4375 1.625 2.4375 1.625 4 4 C4.5625 6.9375 4.5625 6.9375 4 10 C1.51877621 13.35694984 0.05634831 14.78441871 -4.0625 15.625 C-7 15 -7 15 -9.375 12.875 C-11.28071139 9.50335677 -11.64850195 7.80994895 -11 4 C-8.05899778 -0.47032338 -5.13105401 -0.73300772 0 0 Z " fill="#291D19" transform="translate(326,361)"/>
<path d="M0 0 C2.4375 1.625 2.4375 1.625 4 4 C4.5625 6.9375 4.5625 6.9375 4 10 C1.51877621 13.35694984 0.05634831 14.78441871 -4.0625 15.625 C-7 15 -7 15 -9.375 12.875 C-11.28071139 9.50335677 -11.64850195 7.80994895 -11 4 C-8.05899778 -0.47032338 -5.13105401 -0.73300772 0 0 Z " fill="#291D19" transform="translate(269,361)"/>
<path d="M0 0 C2 1 2 1 3 3 C3.75912409 9.83211679 3.75912409 9.83211679 1.375 13.5 C-1.72140596 15.45562482 -3.39853135 15.60024477 -7 15 C-9.375 13.5 -9.375 13.5 -11 11 C-11.6293407 7.48559179 -11.63147635 4.2629527 -10 1 C-6.73794446 -0.63102777 -3.56444611 -0.51981506 0 0 Z " fill="#291D19" transform="translate(355,361)"/>
<path d="M0 0 C2 1 2 1 3 3 C3.75912409 9.83211679 3.75912409 9.83211679 1.375 13.5 C-1.72140596 15.45562482 -3.39853135 15.60024477 -7 15 C-9.375 13.5 -9.375 13.5 -11 11 C-11.6293407 7.48559179 -11.63147635 4.2629527 -10 1 C-6.73794446 -0.63102777 -3.56444611 -0.51981506 0 0 Z " fill="#291D19" transform="translate(298,361)"/>
<path d="M0 0 C2 1 2 1 3 3 C3.75912409 9.83211679 3.75912409 9.83211679 1.375 13.5 C-1.72140596 15.45562482 -3.39853135 15.60024477 -7 15 C-9.375 13.5 -9.375 13.5 -11 11 C-11.6293407 7.48559179 -11.63147635 4.2629527 -10 1 C-6.73794446 -0.63102777 -3.56444611 -0.51981506 0 0 Z " fill="#291D19" transform="translate(241,361)"/>
</svg>
